<svg width="660" height="245" viewBox="0 0 660 245" xmlns="http://www.w3.org/2000/svg">
  <g>
    <path d="M 176.9 44.4 A 76 76 0 1 1 97.6 94.0" fill="none" stroke="#1E9E6E" stroke-width="20" stroke-linecap="round"/>
    <path d="M 79 94 L 109 71 L 110 108 Z" fill="#1A2733"/>
    <circle cx="207" cy="54" r="4.5" fill="#FDFDFD"/>
    <circle cx="242" cy="100" r="4.5" fill="#FDFDFD"/>
    <circle cx="235" cy="158" r="4.5" fill="#FDFDFD"/>
    <circle cx="189" cy="193" r="4.5" fill="#FDFDFD"/>
    <circle cx="131" cy="186" r="4.5" fill="#FDFDFD"/>
    <circle cx="96" cy="140" r="4.5" fill="#FDFDFD"/>
  </g>
  <g>
    <polygon points="169,84 205,102 169,120 133,102" fill="#E89568"/>
    <polygon points="133,102 169,120 169,162 133,144" fill="#C3502E"/>
    <polygon points="205,102 169,120 169,162 205,144" fill="#D9673E"/>
  </g>
  <g fill="#1B2939"><g transform="translate(316.00,120.00) scale(0.02832,-0.02832)"><path d="M1386 402Q1386 210 1242.0 105.0Q1098 0 842 0H137V1409H782Q1040 1409 1172.5 1319.5Q1305 1230 1305 1055Q1305 935 1238.5 852.5Q1172 770 1036 741Q1207 721 1296.5 633.5Q1386 546 1386 402ZM1008 1015Q1008 1110 947.5 1150.0Q887 1190 768 1190H432V841H770Q895 841 951.5 884.5Q1008 928 1008 1015ZM1090 425Q1090 623 806 623H432V219H817Q959 219 1024.5 270.5Q1090 322 1090 425Z"/></g>
<g transform="translate(357.89,120.00) scale(0.02832,-0.02832)"><path d="M408 1082V475Q408 190 600 190Q702 190 764.5 277.5Q827 365 827 502V1082H1108V242Q1108 104 1116 0H848Q836 144 836 215H831Q775 92 688.5 36.0Q602 -20 483 -20Q311 -20 219.0 85.5Q127 191 127 395V1082Z"/></g>
<g transform="translate(393.31,120.00) scale(0.02832,-0.02832)"><path d="M844 0V607Q844 892 651 892Q549 892 486.5 804.5Q424 717 424 580V0H143V840Q143 927 140.5 982.5Q138 1038 135 1082H403Q406 1063 411.0 980.5Q416 898 416 867H420Q477 991 563.0 1047.0Q649 1103 768 1103Q940 1103 1032.0 997.0Q1124 891 1124 687V0Z"/></g>
<g transform="translate(428.74,120.00) scale(0.02832,-0.02832)"><path d="M844 0Q840 15 834.5 75.5Q829 136 829 176H825Q734 -20 479 -20Q290 -20 187.0 127.5Q84 275 84 540Q84 809 192.5 955.5Q301 1102 500 1102Q615 1102 698.5 1054.0Q782 1006 827 911H829L827 1089V1484H1108V236Q1108 136 1116 0ZM831 547Q831 722 772.5 816.5Q714 911 600 911Q487 911 432.0 819.5Q377 728 377 540Q377 172 598 172Q709 172 770.0 269.5Q831 367 831 547Z"/></g>
<g transform="translate(464.17,120.00) scale(0.02832,-0.02832)"><path d="M143 0V1484H424V0Z"/></g>
<g transform="translate(480.29,120.00) scale(0.02832,-0.02832)"><path d="M586 -20Q342 -20 211.0 124.5Q80 269 80 546Q80 814 213.0 958.0Q346 1102 590 1102Q823 1102 946.0 947.5Q1069 793 1069 495V487H375Q375 329 433.5 248.5Q492 168 600 168Q749 168 788 297L1053 274Q938 -20 586 -20ZM586 925Q487 925 433.5 856.0Q380 787 377 663H797Q789 794 734.0 859.5Q679 925 586 925Z"/></g></g>
  <g fill="#E05A2B"><g transform="translate(512.54,120.00) scale(0.02832,-0.02832)"><path d="M137 0V1409H432V228H1188V0Z"/></g>
<g transform="translate(547.97,120.00) scale(0.02832,-0.02832)"><path d="M393 -20Q236 -20 148.0 65.5Q60 151 60 306Q60 474 169.5 562.0Q279 650 487 652L720 656V711Q720 817 683.0 868.5Q646 920 562 920Q484 920 447.5 884.5Q411 849 402 767L109 781Q136 939 253.5 1020.5Q371 1102 574 1102Q779 1102 890.0 1001.0Q1001 900 1001 714V320Q1001 229 1021.5 194.5Q1042 160 1090 160Q1122 160 1152 166V14Q1127 8 1107.0 3.0Q1087 -2 1067.0 -5.0Q1047 -8 1024.5 -10.0Q1002 -12 972 -12Q866 -12 815.5 40.0Q765 92 755 193H749Q631 -20 393 -20ZM720 501 576 499Q478 495 437.0 477.5Q396 460 374.5 424.0Q353 388 353 328Q353 251 388.5 213.5Q424 176 483 176Q549 176 603.5 212.0Q658 248 689.0 311.5Q720 375 720 446Z"/></g>
<g transform="translate(580.23,120.00) scale(0.02832,-0.02832)"><path d="M420 866Q477 990 563.0 1046.0Q649 1102 768 1102Q940 1102 1032.0 996.0Q1124 890 1124 686V0H844V606Q844 891 651 891Q549 891 486.5 803.5Q424 716 424 579V0H143V1484H424V1079Q424 970 416 866Z"/></g></g>
  <g fill="#939596"><g transform="translate(318.00,158.00) scale(0.01172,-0.01172)"><path d="M777 584V0H587V584L45 1409H255L684 738L1111 1409H1321Z"/></g>
<g transform="translate(334.01,158.00) scale(0.01172,-0.01172)"><path d="M1053 542Q1053 258 928.0 119.0Q803 -20 565 -20Q328 -20 207.0 124.5Q86 269 86 542Q86 1102 571 1102Q819 1102 936.0 965.5Q1053 829 1053 542ZM864 542Q864 766 797.5 867.5Q731 969 574 969Q416 969 345.5 865.5Q275 762 275 542Q275 328 344.5 220.5Q414 113 563 113Q725 113 794.5 217.0Q864 321 864 542Z"/></g>
<g transform="translate(347.36,158.00) scale(0.01172,-0.01172)"><path d="M314 1082V396Q314 289 335.0 230.0Q356 171 402.0 145.0Q448 119 537 119Q667 119 742.0 208.0Q817 297 817 455V1082H997V231Q997 42 1003 0H833Q832 5 831.0 27.0Q830 49 828.5 77.5Q827 106 825 185H822Q760 73 678.5 26.5Q597 -20 476 -20Q298 -20 215.5 68.5Q133 157 133 361V1082Z"/></g>
<g transform="translate(360.70,158.00) scale(0.01172,-0.01172)"><path d="M142 0V830Q142 944 136 1082H306Q314 898 314 861H318Q361 1000 417.0 1051.0Q473 1102 575 1102Q611 1102 648 1092V927Q612 937 552 937Q440 937 381.0 840.5Q322 744 322 564V0Z"/></g>
<g transform="translate(368.70,158.00) scale(0.01172,-0.01172)"><path d="M950 299Q950 146 834.5 63.0Q719 -20 511 -20Q309 -20 199.5 46.5Q90 113 57 254L216 285Q239 198 311.0 157.5Q383 117 511 117Q648 117 711.5 159.0Q775 201 775 285Q775 349 731.0 389.0Q687 429 589 455L460 489Q305 529 239.5 567.5Q174 606 137.0 661.0Q100 716 100 796Q100 944 205.5 1021.5Q311 1099 513 1099Q692 1099 797.5 1036.0Q903 973 931 834L769 814Q754 886 688.5 924.5Q623 963 513 963Q391 963 333.0 926.0Q275 889 275 814Q275 768 299.0 738.0Q323 708 370.0 687.0Q417 666 568 629Q711 593 774.0 562.5Q837 532 873.5 495.0Q910 458 930.0 409.5Q950 361 950 299Z"/></g>
<g transform="translate(387.36,158.00) scale(0.01172,-0.01172)"><path d="M671 608V180H524V608H100V754H524V1182H671V754H1095V608Z"/></g>
<g transform="translate(408.05,158.00) scale(0.01172,-0.01172)"><path d="M768 0V686Q768 843 725.0 903.0Q682 963 570 963Q455 963 388.0 875.0Q321 787 321 627V0H142V851Q142 1040 136 1082H306Q307 1077 308.0 1055.0Q309 1033 310.5 1004.5Q312 976 314 897H317Q375 1012 450.0 1057.0Q525 1102 633 1102Q756 1102 827.5 1053.0Q899 1004 927 897H930Q986 1006 1065.5 1054.0Q1145 1102 1258 1102Q1422 1102 1496.5 1013.0Q1571 924 1571 721V0H1393V686Q1393 843 1350.0 903.0Q1307 963 1195 963Q1077 963 1011.5 875.5Q946 788 946 627V0Z"/></g>
<g transform="translate(428.04,158.00) scale(0.01172,-0.01172)"><path d="M137 1312V1484H317V1312ZM137 0V1082H317V0Z"/></g>
<g transform="translate(433.37,158.00) scale(0.01172,-0.01172)"><path d="M825 0V686Q825 793 804.0 852.0Q783 911 737.0 937.0Q691 963 602 963Q472 963 397.0 874.0Q322 785 322 627V0H142V851Q142 1040 136 1082H306Q307 1077 308.0 1055.0Q309 1033 310.5 1004.5Q312 976 314 897H317Q379 1009 460.5 1055.5Q542 1102 663 1102Q841 1102 923.5 1013.5Q1006 925 1006 721V0Z"/></g>
<g transform="translate(446.72,158.00) scale(0.01172,-0.01172)"><path d="M276 503Q276 317 353.0 216.0Q430 115 578 115Q695 115 765.5 162.0Q836 209 861 281L1019 236Q922 -20 578 -20Q338 -20 212.5 123.0Q87 266 87 548Q87 816 212.5 959.0Q338 1102 571 1102Q1048 1102 1048 527V503ZM862 641Q847 812 775.0 890.5Q703 969 568 969Q437 969 360.5 881.5Q284 794 278 641Z"/></g>
<g transform="translate(466.73,158.00) scale(0.01172,-0.01172)"><path d="M100 856V1004H1095V856ZM100 344V492H1095V344Z"/></g>
<g transform="translate(487.42,158.00) scale(0.01172,-0.01172)"><path d="M1495 711Q1495 490 1410.5 324.0Q1326 158 1168.0 69.0Q1010 -20 795 -20Q578 -20 420.5 68.0Q263 156 180.0 322.5Q97 489 97 711Q97 1049 282.0 1239.5Q467 1430 797 1430Q1012 1430 1170.0 1344.5Q1328 1259 1411.5 1096.0Q1495 933 1495 711ZM1300 711Q1300 974 1168.5 1124.0Q1037 1274 797 1274Q555 1274 423.0 1126.0Q291 978 291 711Q291 446 424.5 290.5Q558 135 795 135Q1039 135 1169.5 285.5Q1300 436 1300 711Z"/></g>
<g transform="translate(506.09,158.00) scale(0.01172,-0.01172)"><path d="M825 0V686Q825 793 804.0 852.0Q783 911 737.0 937.0Q691 963 602 963Q472 963 397.0 874.0Q322 785 322 627V0H142V851Q142 1040 136 1082H306Q307 1077 308.0 1055.0Q309 1033 310.5 1004.5Q312 976 314 897H317Q379 1009 460.5 1055.5Q542 1102 663 1102Q841 1102 923.5 1013.5Q1006 925 1006 721V0Z"/></g>
<g transform="translate(519.43,158.00) scale(0.01172,-0.01172)"><path d="M276 503Q276 317 353.0 216.0Q430 115 578 115Q695 115 765.5 162.0Q836 209 861 281L1019 236Q922 -20 578 -20Q338 -20 212.5 123.0Q87 266 87 548Q87 816 212.5 959.0Q338 1102 571 1102Q1048 1102 1048 527V503ZM862 641Q847 812 775.0 890.5Q703 969 568 969Q437 969 360.5 881.5Q284 794 278 641Z"/></g></g>
</svg>